{
  "accessors": [
    {
      "bufferView": 2,
      "componentType": 5126,
      "count": 40634,
      "max": [
        4.635951995849609,
        1.6793190240859985,
        0.0928199291229248
      ],
      "min": [
        -4.635951995849609,
        -1.6801060438156128,
        -8.054789543151855
      ],
      "type": "VEC3"
    },
    {
      "bufferView": 2,
      "byteOffset": 487608,
      "componentType": 5126,
      "count": 40634,
      "max": [
        1.0,
        1.0,
        1.0
      ],
      "min": [
        -1.0,
        -1.0,
        -1.0
      ],
      "type": "VEC3"
    },
    {
      "bufferView": 3,
      "componentType": 5126,
      "count": 40634,
      "max": [
        1.0,
        1.0,
        1.0,
        1.0
      ],
      "min": [
        -1.0,
        -1.0,
        -1.0,
        -1.0
      ],
      "type": "VEC4"
    },
    {
      "bufferView": 1,
      "componentType": 5126,
      "count": 40634,
      "max": [
        0.9960938096046448,
        0.99609375
      ],
      "min": [
        0.00390625,
        0.025849997997283936
      ],
      "type": "VEC2"
    },
    {
      "bufferView": 1,
      "byteOffset": 325072,
      "componentType": 5126,
      "count": 40634,
      "max": [
        0.9960938096046448,
        0.99609375
      ],
      "min": [
        0.00390625,
        0.025849997997283936
      ],
      "type": "VEC2"
    },
    {
      "bufferView": 1,
      "byteOffset": 650144,
      "componentType": 5126,
      "count": 40634,
      "max": [
        0.9960938096046448,
        0.99609375
      ],
      "min": [
        0.00390625,
        0.025849997997283936
      ],
      "type": "VEC2"
    },
    {
      "bufferView": 1,
      "byteOffset": 975216,
      "componentType": 5126,
      "count": 40634,
      "max": [
        0.9960938096046448,
        0.99609375
      ],
      "min": [
        0.00390625,
        0.025849997997283936
      ],
      "type": "VEC2"
    },
    {
      "bufferView": 1,
      "byteOffset": 1300288,
      "componentType": 5126,
      "count": 40634,
      "max": [
        0.9960938096046448,
        0.99609375
      ],
      "min": [
        0.00390625,
        0.025849997997283936
      ],
      "type": "VEC2"
    },
    {
      "bufferView": 0,
      "componentType": 5125,
      "count": 193428,
      "type": "SCALAR"
    }
  ],
  "asset": {
    "extras": {
      "author": "mralo (https://sketchfab.com/mralo)",
      "license": "CC-BY-4.0 (http://creativecommons.org/licenses/by/4.0/)",
      "source": "https://sketchfab.com/3d-models/eyeglass-91892daf06e04429be3b8f9c63e770ad",
      "title": "Eyeglass"
    },
    "generator": "Sketchfab-12.67.0",
    "version": "2.0"
  },
  "bufferViews": [
    {
      "buffer": 0,
      "byteLength": 773712,
      "name": "floatBufferViews",
      "target": 34963
    },
    {
      "buffer": 0,
      "byteLength": 1625360,
      "byteOffset": 773712,
      "byteStride": 8,
      "name": "floatBufferViews",
      "target": 34962
    },
    {
      "buffer": 0,
      "byteLength": 975216,
      "byteOffset": 2399072,
      "byteStride": 12,
      "name": "floatBufferViews",
      "target": 34962
    },
    {
      "buffer": 0,
      "byteLength": 650144,
      "byteOffset": 3374288,
      "byteStride": 16,
      "name": "floatBufferViews",
      "target": 34962
    }
  ],
  "buffers": [
    {
      "byteLength": 4024432,
      "uri": "scene.bin"
    }
  ],
  "images": [
    {
      "uri": "textures/EyeGlass1_baseColor.png"
    },
    {
      "uri": "textures/EyeGlass1_metallicRoughness.png"
    },
    {
      "uri": "textures/EyeGlass1_normal.png"
    }
  ],
  "materials": [
    {
      "alphaMode": "BLEND",
      "name": "EyeGlass1",
      "normalTexture": {
        "index": 2
      },
      "occlusionTexture": {
        "index": 1
      },
      "pbrMetallicRoughness": {
        "baseColorTexture": {
          "index": 0
        },
        "metallicRoughnessTexture": {
          "index": 1
        }
      }
    }
  ],
  "meshes": [
    {
      "name": "Object_0",
      "primitives": [
        {
          "attributes": {
            "NORMAL": 1,
            "POSITION": 0,
            "TANGENT": 2,
            "TEXCOORD_0": 3,
            "TEXCOORD_1": 4,
            "TEXCOORD_2": 5,
            "TEXCOORD_3": 6,
            "TEXCOORD_4": 7
          },
          "indices": 8,
          "material": 0,
          "mode": 4
        }
      ]
    }
  ],
  "nodes": [
    {
      "children": [
        1
      ],
      "matrix": [
        1.0,
        0.0,
        0.0,
        0.0,
        0.0,
        2.220446049250313e-16,
        -1.0,
        0.0,
        0.0,
        1.0,
        2.220446049250313e-16,
        0.0,
        0.0,
        0.0,
        0.0,
        1.0
      ],
      "name": "Sketchfab_model"
    },
    {
      "children": [
        2
      ],
      "name": "root"
    },
    {
      "children": [
        3
      ],
      "matrix": [
        1.0,
        0.0,
        0.0,
        0.0,
        0.0,
        2.220446049250313e-16,
        1.0,
        0.0,
        0.0,
        -1.0,
        2.220446049250313e-16,
        0.0,
        0.0,
        0.0,
        0.0,
        1.0
      ],
      "name": "GLTF_SceneRootNode"
    },
    {
      "children": [
        4
      ],
      "name": "RootNode_0"
    },
    {
      "children": [
        5
      ],
      "name": "EyeGlass_High_1"
    },
    {
      "children": [
        6
      ],
      "name": "EyeGlass_High_2"
    },
    {
      "mesh": 0,
      "name": "Object_6"
    }
  ],
  "samplers": [
    {
      "magFilter": 9729,
      "minFilter": 9987,
      "wrapS": 10497,
      "wrapT": 10497
    }
  ],
  "scene": 0,
  "scenes": [
    {
      "name": "Sketchfab_Scene",
      "nodes": [
        0
      ]
    }
  ],
  "textures": [
    {
      "sampler": 0,
      "source": 0
    },
    {
      "sampler": 0,
      "source": 1
    },
    {
      "sampler": 0,
      "source": 2
    }
  ]
}
