{
  "accessors": [
    {
      "bufferView": 2,
      "componentType": 5126,
      "count": 418,
      "max": [
        0.3573029935359955,
        5.941400051116943,
        0.553309977054596
      ],
      "min": [
        -0.3573029935359955,
        5.64640998840332,
        -0.15652400255203247
      ],
      "type": "VEC3"
    },
    {
      "bufferView": 2,
      "byteOffset": 5016,
      "componentType": 5126,
      "count": 418,
      "max": [
        1.0,
        0.9992764592170715,
        0.9921978116035461
      ],
      "min": [
        -1.0,
        -0.9992764592170715,
        -0.9921978116035461
      ],
      "type": "VEC3"
    },
    {
      "bufferView": 3,
      "componentType": 5126,
      "count": 418,
      "max": [
        0.675320029258728,
        0.9921979308128357,
        0.9992765784263611,
        1.0
      ],
      "min": [
        -0.6753162145614624,
        -0.9921978712081909,
        -0.12467344850301743,
        1.0
      ],
      "type": "VEC4"
    },
    {
      "bufferView": 1,
      "componentType": 5126,
      "count": 418,
      "max": [
        0.4820779860019684,
        0.23042699694633484
      ],
      "min": [
        0.4381459951400757,
        0.12224499881267548
      ],
      "type": "VEC2"
    },
    {
      "bufferView": 1,
      "byteOffset": 3344,
      "componentType": 5126,
      "count": 418,
      "max": [
        0.4820779860019684,
        0.23042699694633484
      ],
      "min": [
        0.4381459951400757,
        0.12224499881267548
      ],
      "type": "VEC2"
    },
    {
      "bufferView": 1,
      "byteOffset": 6688,
      "componentType": 5126,
      "count": 418,
      "max": [
        0.4820779860019684,
        0.23042699694633484
      ],
      "min": [
        0.4381459951400757,
        0.12224499881267548
      ],
      "type": "VEC2"
    },
    {
      "bufferView": 0,
      "componentType": 5125,
      "count": 2304,
      "type": "SCALAR"
    },
    {
      "bufferView": 2,
      "byteOffset": 10032,
      "componentType": 5126,
      "count": 3714,
      "max": [
        4.30580997467041,
        0.7432489991188049,
        8.23231029510498
      ],
      "min": [
        -4.30417013168335,
        -1.7730400562286377,
        1.8872100114822388
      ],
      "type": "VEC3"
    },
    {
      "bufferView": 2,
      "byteOffset": 54600,
      "componentType": 5126,
      "count": 3714,
      "max": [
        0.9879201650619507,
        0.9961546659469604,
        0.9947274327278137
      ],
      "min": [
        -0.989391028881073,
        -0.9945535659790039,
        -0.9929572343826294
      ],
      "type": "VEC3"
    },
    {
      "bufferView": 3,
      "byteOffset": 6688,
      "componentType": 5126,
      "count": 3714,
      "max": [
        0.9770192503929138,
        0.9583074450492859,
        0.9996489882469177,
        1.0
      ],
      "min": [
        -0.9900062084197998,
        -0.9947060346603394,
        -0.9289451837539673,
        -1.0
      ],
      "type": "VEC4"
    },
    {
      "bufferView": 1,
      "byteOffset": 10032,
      "componentType": 5126,
      "count": 3714,
      "max": [
        0.9925289750099182,
        0.8616189956665039
      ],
      "min": [
        0.7554799914360046,
        0.016736000776290894
      ],
      "type": "VEC2"
    },
    {
      "bufferView": 1,
      "byteOffset": 39744,
      "componentType": 5126,
      "count": 3714,
      "max": [
        0.9925289750099182,
        0.8616189956665039
      ],
      "min": [
        0.7554799914360046,
        0.016736000776290894
      ],
      "type": "VEC2"
    },
    {
      "bufferView": 1,
      "byteOffset": 69456,
      "componentType": 5126,
      "count": 3714,
      "max": [
        0.9925289750099182,
        0.8616189956665039
      ],
      "min": [
        0.7554799914360046,
        0.016736000776290894
      ],
      "type": "VEC2"
    },
    {
      "bufferView": 0,
      "byteOffset": 9216,
      "componentType": 5125,
      "count": 21312,
      "type": "SCALAR"
    },
    {
      "bufferView": 2,
      "byteOffset": 99168,
      "componentType": 5126,
      "count": 10546,
      "max": [
        0.9006019830703735,
        0.9951220154762268,
        -4.107150077819824
      ],
      "min": [
        -2.32600998878479,
        0.09323500096797943,
        -4.914639949798584
      ],
      "type": "VEC3"
    },
    {
      "bufferView": 2,
      "byteOffset": 225720,
      "componentType": 5126,
      "count": 10546,
      "max": [
        0.9999964237213135,
        0.9996939897537231,
        0.9998791217803955
      ],
      "min": [
        -0.9998019933700562,
        -0.9994105100631714,
        -0.9999333024024963
      ],
      "type": "VEC3"
    },
    {
      "bufferView": 1,
      "byteOffset": 99168,
      "componentType": 5126,
      "count": 10546,
      "max": [
        0.9665229916572571,
        0.8986200094223022
      ],
      "min": [
        0.8197529911994934,
        0.3188509941101074
      ],
      "type": "VEC2"
    },
    {
      "bufferView": 0,
      "byteOffset": 94464,
      "componentType": 5125,
      "count": 60096,
      "type": "SCALAR"
    },
    {
      "bufferView": 2,
      "byteOffset": 352272,
      "componentType": 5126,
      "count": 14668,
      "max": [
        2.5170300006866455,
        0.9993630051612854,
        -4.015669822692871
      ],
      "min": [
        -0.7686460018157959,
        0.10003600269556046,
        -4.929930210113525
      ],
      "type": "VEC3"
    },
    {
      "bufferView": 2,
      "byteOffset": 528288,
      "componentType": 5126,
      "count": 14668,
      "max": [
        0.999993622303009,
        0.9999926686286926,
        0.9999801516532898
      ],
      "min": [
        -0.9999946355819702,
        -0.999995768070221,
        -0.9999924302101135
      ],
      "type": "VEC3"
    },
    {
      "bufferView": 1,
      "byteOffset": 183536,
      "componentType": 5126,
      "count": 14668,
      "max": [
        0.12452200055122375,
        0.861873984336853
      ],
      "min": [
        0.04349200055003166,
        0.32144999504089355
      ],
      "type": "VEC2"
    },
    {
      "bufferView": 0,
      "byteOffset": 334848,
      "componentType": 5125,
      "count": 86208,
      "type": "SCALAR"
    },
    {
      "bufferView": 2,
      "byteOffset": 704304,
      "componentType": 5126,
      "count": 7322,
      "max": [
        4.6697797775268555,
        2.086250066757202,
        4.771729946136475
      ],
      "min": [
        -4.676630020141602,
        0.03229900076985359,
        -4.399940013885498
      ],
      "type": "VEC3"
    },
    {
      "bufferView": 2,
      "byteOffset": 792168,
      "componentType": 5126,
      "count": 7322,
      "max": [
        0.9999539256095886,
        0.9999362826347351,
        0.9952402710914612
      ],
      "min": [
        -0.9982061386108398,
        -0.9999986290931702,
        -0.9950074553489685
      ],
      "type": "VEC3"
    },
    {
      "bufferView": 3,
      "byteOffset": 66112,
      "componentType": 5126,
      "count": 7322,
      "max": [
        0.9999551177024841,
        0.9999934434890747,
        0.9989319443702698,
        1.0
      ],
      "min": [
        -0.9998356103897095,
        -0.2579379379749298,
        -0.9997096657752991,
        -1.0
      ],
      "type": "VEC4"
    },
    {
      "bufferView": 1,
      "byteOffset": 300880,
      "componentType": 5126,
      "count": 7322,
      "max": [
        0.10541100054979324,
        0.973501980304718
      ],
      "min": [
        0.003496000077575445,
        0.18956699967384338
      ],
      "type": "VEC2"
    },
    {
      "bufferView": 1,
      "byteOffset": 359456,
      "componentType": 5126,
      "count": 7322,
      "max": [
        0.10541100054979324,
        0.973501980304718
      ],
      "min": [
        0.003496000077575445,
        0.18956699967384338
      ],
      "type": "VEC2"
    },
    {
      "bufferView": 1,
      "byteOffset": 418032,
      "componentType": 5126,
      "count": 7322,
      "max": [
        0.10541100054979324,
        0.973501980304718
      ],
      "min": [
        0.003496000077575445,
        0.18956699967384338
      ],
      "type": "VEC2"
    },
    {
      "bufferView": 0,
      "byteOffset": 679680,
      "componentType": 5125,
      "count": 42240,
      "type": "SCALAR"
    },
    {
      "bufferView": 2,
      "byteOffset": 880032,
      "componentType": 5126,
      "count": 114,
      "max": [
        0.2940559983253479,
        5.738900184631348,
        0.4749700129032135
      ],
      "min": [
        -0.2940559983253479,
        5.601940155029297,
        -0.10921599715948105
      ],
      "type": "VEC3"
    },
    {
      "bufferView": 2,
      "byteOffset": 881400,
      "componentType": 5126,
      "count": 114,
      "max": [
        1.0,
        0.9995036721229553,
        0.9921976923942566
      ],
      "min": [
        -1.0,
        -0.9995036721229553,
        -0.9921979308128357
      ],
      "type": "VEC3"
    },
    {
      "bufferView": 1,
      "byteOffset": 476608,
      "componentType": 5126,
      "count": 114,
      "max": [
        0.4820779860019684,
        0.23042699694633484
      ],
      "min": [
        0.4381459951400757,
        0.12224499881267548
      ],
      "type": "VEC2"
    },
    {
      "bufferView": 0,
      "byteOffset": 848640,
      "componentType": 5125,
      "count": 576,
      "type": "SCALAR"
    },
    {
      "bufferView": 2,
      "byteOffset": 882768,
      "componentType": 5126,
      "count": 11572,
      "max": [
        4.741990089416504,
        5.843490123748779,
        4.820419788360596
      ],
      "min": [
        -4.743060111999512,
        0.03946800157427788,
        -4.536280155181885
      ],
      "type": "VEC3"
    },
    {
      "bufferView": 2,
      "byteOffset": 1021632,
      "componentType": 5126,
      "count": 11572,
      "max": [
        0.999744713306427,
        0.9999932646751404,
        0.9992220997810364
      ],
      "min": [
        -0.9998762011528015,
        -1.0,
        -0.9999021291732788
      ],
      "type": "VEC3"
    },
    {
      "bufferView": 3,
      "byteOffset": 183264,
      "componentType": 5126,
      "count": 11572,
      "max": [
        1.0,
        0.9997699856758118,
        0.9987643957138062,
        1.0
      ],
      "min": [
        -0.995582103729248,
        -0.9997199177742004,
        -0.9991505742073059,
        -1.0
      ],
      "type": "VEC4"
    },
    {
      "bufferView": 1,
      "byteOffset": 477520,
      "componentType": 5126,
      "count": 11572,
      "max": [
        0.8119750022888184,
        0.9935449957847595
      ],
      "min": [
        0.10974899679422379,
        0.11017899960279465
      ],
      "type": "VEC2"
    },
    {
      "bufferView": 1,
      "byteOffset": 570096,
      "componentType": 5126,
      "count": 11572,
      "max": [
        0.8119750022888184,
        0.9935449957847595
      ],
      "min": [
        0.10974899679422379,
        0.11017899960279465
      ],
      "type": "VEC2"
    },
    {
      "bufferView": 1,
      "byteOffset": 662672,
      "componentType": 5126,
      "count": 11572,
      "max": [
        0.8119750022888184,
        0.9935449957847595
      ],
      "min": [
        0.10974899679422379,
        0.11017899960279465
      ],
      "type": "VEC2"
    },
    {
      "bufferView": 0,
      "byteOffset": 850944,
      "componentType": 5125,
      "count": 66816,
      "type": "SCALAR"
    }
  ],
  "asset": {
    "extras": {
      "author": "Scott VanArsdale (https://sketchfab.com/vanart)",
      "license": "CC-BY-4.0 (http://creativecommons.org/licenses/by/4.0/)",
      "source": "https://sketchfab.com/3d-models/baseball-cap-1c1d34d73fd94e6b9e8f82b1eb7194a0",
      "title": "Baseball Cap"
    },
    "generator": "Sketchfab-12.66.0",
    "version": "2.0"
  },
  "bufferViews": [
    {
      "buffer": 0,
      "byteLength": 1118208,
      "name": "floatBufferViews",
      "target": 34963
    },
    {
      "buffer": 0,
      "byteLength": 755248,
      "byteOffset": 1118208,
      "byteStride": 8,
      "name": "floatBufferViews",
      "target": 34962
    },
    {
      "buffer": 0,
      "byteLength": 1160496,
      "byteOffset": 1873456,
      "byteStride": 12,
      "name": "floatBufferViews",
      "target": 34962
    },
    {
      "buffer": 0,
      "byteLength": 368416,
      "byteOffset": 3033952,
      "byteStride": 16,
      "name": "floatBufferViews",
      "target": 34962
    }
  ],
  "buffers": [
    {
      "byteLength": 3402368,
      "uri": "scene.bin"
    }
  ],
  "extensionsRequired": [
    "KHR_materials_pbrSpecularGlossiness"
  ],
  "extensionsUsed": [
    "KHR_materials_pbrSpecularGlossiness"
  ],
  "images": [
    {
      "uri": "textures/baseballCap_diffuse.jpeg"
    },
    {
      "uri": "textures/baseballCap_specularGlossiness.png"
    },
    {
      "uri": "textures/baseballCap_normal.png"
    }
  ],
  "materials": [
    {
      "extensions": {
        "KHR_materials_pbrSpecularGlossiness": {
          "diffuseFactor": [
            1.0,
            1.0,
            1.0,
            1.0
          ],
          "diffuseTexture": {
            "index": 0
          },
          "glossinessFactor": 1.0,
          "specularFactor": [
            1.0,
            1.0,
            1.0
          ],
          "specularGlossinessTexture": {
            "index": 1
          }
        }
      },
      "name": "baseballCap",
      "normalTexture": {
        "index": 2,
        "scale": 0.5687881097560976
      }
    },
    {
      "doubleSided": true,
      "extensions": {
        "KHR_materials_pbrSpecularGlossiness": {
          "diffuseFactor": [
            0.72549,
            0.72549,
            0.72549,
            1.0
          ],
          "glossinessFactor": 0.14719610375213815,
          "specularFactor": [
            0.05,
            0.05,
            0.05
          ]
        }
      },
      "name": "blinn1SG"
    },
    {
      "doubleSided": true,
      "extensions": {
        "KHR_materials_pbrSpecularGlossiness": {
          "diffuseFactor": [
            0.372549,
            0.372549,
            0.372549,
            1.0
          ],
          "glossinessFactor": 0.07461703827226873,
          "specularFactor": [
            0.05,
            0.05,
            0.05
          ]
        }
      },
      "name": "plastic"
    }
  ],
  "meshes": [
    {
      "name": "baseballCap",
      "primitives": [
        {
          "attributes": {
            "NORMAL": 1,
            "POSITION": 0,
            "TANGENT": 2,
            "TEXCOORD_0": 3,
            "TEXCOORD_1": 4,
            "TEXCOORD_2": 5
          },
          "indices": 6,
          "material": 0,
          "mode": 4
        }
      ]
    },
    {
      "name": "baseballCap",
      "primitives": [
        {
          "attributes": {
            "NORMAL": 8,
            "POSITION": 7,
            "TANGENT": 9,
            "TEXCOORD_0": 10,
            "TEXCOORD_1": 11,
            "TEXCOORD_2": 12
          },
          "indices": 13,
          "material": 0,
          "mode": 4
        }
      ]
    },
    {
      "name": "plastic",
      "primitives": [
        {
          "attributes": {
            "NORMAL": 15,
            "POSITION": 14,
            "TEXCOORD_0": 16
          },
          "indices": 17,
          "material": 2,
          "mode": 4
        }
      ]
    },
    {
      "name": "plastic",
      "primitives": [
        {
          "attributes": {
            "NORMAL": 19,
            "POSITION": 18,
            "TEXCOORD_0": 20
          },
          "indices": 21,
          "material": 2,
          "mode": 4
        }
      ]
    },
    {
      "name": "baseballCap",
      "primitives": [
        {
          "attributes": {
            "NORMAL": 23,
            "POSITION": 22,
            "TANGENT": 24,
            "TEXCOORD_0": 25,
            "TEXCOORD_1": 26,
            "TEXCOORD_2": 27
          },
          "indices": 28,
          "material": 0,
          "mode": 4
        }
      ]
    },
    {
      "name": "blinn1SG",
      "primitives": [
        {
          "attributes": {
            "NORMAL": 30,
            "POSITION": 29,
            "TEXCOORD_0": 31
          },
          "indices": 32,
          "material": 1,
          "mode": 4
        }
      ]
    },
    {
      "name": "baseballCap",
      "primitives": [
        {
          "attributes": {
            "NORMAL": 34,
            "POSITION": 33,
            "TANGENT": 35,
            "TEXCOORD_0": 36,
            "TEXCOORD_1": 37,
            "TEXCOORD_2": 38
          },
          "indices": 39,
          "material": 0,
          "mode": 4
        }
      ]
    }
  ],
  "nodes": [
    {
      "children": [
        1
      ],
      "matrix": [
        1.0,
        0.0,
        0.0,
        0.0,
        0.0,
        2.220446049250313e-16,
        -1.0,
        0.0,
        0.0,
        1.0,
        2.220446049250313e-16,
        0.0,
        0.0,
        0.0,
        0.0,
        1.0
      ],
      "name": "Sketchfab_model"
    },
    {
      "children": [
        2,
        4,
        6,
        8,
        10,
        12,
        14,
        16,
        18,
        20,
        22,
        24,
        26
      ],
      "matrix": [
        1.0,
        0.0,
        0.0,
        0.0,
        0.0,
        -4.371139006309477e-08,
        0.999999999999999,
        0.0,
        0.0,
        -0.999999999999999,
        -4.371139006309477e-08,
        0.0,
        0.0,
        0.0,
        0.0,
        1.0
      ],
      "name": "Collada visual scene group"
    },
    {
      "children": [
        3
      ],
      "matrix": [
        0.7748224493595561,
        -0.18851816532922722,
        0.6034161692475271,
        0.0,
        0.0,
        0.9545022167364263,
        0.2982038199709195,
        0.0,
        -0.6321789081964518,
        -0.231055014198244,
        0.7395697454908438,
        0.0,
        -6.786400466368605,
        2.695249534650557,
        -725.4588995029696,
        1.0
      ],
      "name": "__4right_2"
    },
    {
      "name": "__4right_3"
    },
    {
      "children": [
        5
      ],
      "matrix": [
        1.0,
        0.0,
        0.0,
        0.0,
        0.0,
        1.0,
        0.0,
        0.0,
        0.0,
        0.0,
        0.9999999999999999,
        0.0,
        0.00535399978980422,
        -59.432701110839844,
        -699.1199951171874,
        1.0
      ],
      "name": "Default_Camera"
    },
    {
      "name": "Default_Camera1"
    },
    {
      "children": [
        7
      ],
      "name": "Image_Based_Light_1"
    },
    {
      "name": "Image_Based_Light_1"
    },
    {
      "children": [
        9
      ],
      "matrix": [
        -0.7364922114061119,
        -0.6741084407572799,
        -0.05618747758997414,
        0.0,
        0.0,
        0.0830627657617716,
        -0.9965443176015834,
        0.0,
        0.6764460233737315,
        -0.7339471282345849,
        -0.06117508004139504,
        0.0,
        1.2126218723148319,
        2.3632251312785213,
        -99.06614246033175,
        1.0
      ],
      "name": "Infinite_Light_3"
    },
    {
      "name": "Infinite_Light_3"
    },
    {
      "children": [
        11
      ],
      "matrix": [
        -0.0015032820158543464,
        -0.03265145207120678,
        0.9994656686554184,
        0.0,
        0.0,
        0.999466797981986,
        0.03265148896507262,
        0.0,
        -0.9999988700709521,
        4.908439615206031e-05,
        -0.0015024804628498486,
        0.0,
        13.67133655149809,
        -14.49217943394761,
        -83.28404348410902,
        1.0
      ],
      "name": "Infinite_Light_2"
    },
    {
      "name": "Infinite_Light_2"
    },
    {
      "children": [
        13
      ],
      "matrix": [
        0.8991893925150468,
        -0.4355439588067284,
        0.041951118404449934,
        0.0,
        0.0,
        0.0958752014743056,
        0.9953933623157536,
        0.0,
        -0.4375596375220425,
        -0.8950471527742125,
        0.08620996417093853,
        0.0,
        13.419215491335335,
        35.56449508611654,
        -149.63808302883612,
        1.0
      ],
      "name": "Infinite_Light_1"
    },
    {
      "name": "Infinite_Light_1"
    },
    {
      "children": [
        15
      ],
      "matrix": [
        20.1178,
        0.0,
        0.0,
        0.0,
        0.0,
        19.8576,
        -3.22563,
        0.0,
        0.0,
        3.22563,
        19.8576,
        0.0,
        0.005417,
        -2.90039,
        -11.8424,
        1.0
      ],
      "name": "topButton"
    },
    {
      "mesh": 0,
      "name": "baseballCap"
    },
    {
      "children": [
        17
      ],
      "matrix": [
        20.1178,
        0.0,
        0.0,
        0.0,
        0.0,
        19.8576,
        -3.22563,
        0.0,
        0.0,
        3.22563,
        19.8576,
        0.0,
        0.005417,
        -2.90045,
        -11.8423,
        1.0
      ],
      "name": "bill"
    },
    {
      "mesh": 1,
      "name": "baseballCap"
    },
    {
      "children": [
        19
      ],
      "matrix": [
        20.1178,
        0.0,
        0.0,
        0.0,
        0.0,
        19.8576,
        -3.22563,
        0.0,
        0.0,
        3.22563,
        19.8576,
        0.0,
        0.005413,
        -2.90044,
        -11.8424,
        1.0
      ],
      "name": "strapAdjust_male"
    },
    {
      "mesh": 2,
      "name": "plastic"
    },
    {
      "children": [
        21
      ],
      "matrix": [
        20.1178,
        0.0,
        0.0,
        0.0,
        0.0,
        19.8576,
        -3.22563,
        0.0,
        0.0,
        3.22563,
        19.8576,
        0.0,
        0.005426,
        -2.90045,
        -11.8425,
        1.0
      ],
      "name": "strapAdjust_female"
    },
    {
      "mesh": 3,
      "name": "plastic"
    },
    {
      "children": [
        23
      ],
      "matrix": [
        20.1178,
        0.0,
        0.0,
        0.0,
        0.0,
        19.8576,
        -3.22563,
        0.0,
        0.0,
        3.22563,
        19.8576,
        0.0,
        0.005417,
        -2.90043,
        -11.8424,
        1.0
      ],
      "name": "innerLiner"
    },
    {
      "mesh": 4,
      "name": "baseballCap"
    },
    {
      "children": [
        25
      ],
      "matrix": [
        20.1178,
        0.0,
        0.0,
        0.0,
        0.0,
        19.8576,
        -3.22563,
        0.0,
        0.0,
        3.22563,
        19.8576,
        0.0,
        0.005417,
        -2.90039,
        -11.8424,
        1.0
      ],
      "name": "metalButton"
    },
    {
      "mesh": 5,
      "name": "blinn1SG"
    },
    {
      "children": [
        27
      ],
      "matrix": [
        20.1178,
        0.0,
        0.0,
        0.0,
        0.0,
        19.8576,
        -3.22563,
        0.0,
        0.0,
        3.22563,
        19.8576,
        0.0,
        0.005417,
        -2.90042,
        -11.8424,
        1.0
      ],
      "name": "mainCap"
    },
    {
      "mesh": 6,
      "name": "baseballCap"
    }
  ],
  "samplers": [
    {
      "magFilter": 9729,
      "minFilter": 9987,
      "wrapS": 10497,
      "wrapT": 10497
    }
  ],
  "scene": 0,
  "scenes": [
    {
      "name": "Sketchfab_Scene",
      "nodes": [
        0
      ]
    }
  ],
  "textures": [
    {
      "sampler": 0,
      "source": 0
    },
    {
      "sampler": 0,
      "source": 1
    },
    {
      "sampler": 0,
      "source": 2
    }
  ]
}
